<svg width="2500" height="326" viewBox="0 0 2500 326" fill="none" xmlns="http://www.w3.org/2000/svg">
<path d="M2135.81 129.362V325.809H2198.6V194.844H2428.24V325.809H2491.03V129.362H2135.81ZM2191.42 65.6731H2433.62C2467.71 59.394 2491.93 28.8952 2499.1 0.190521H2125.94C2133.12 28.8952 2158.23 58.4969 2191.42 65.6731ZM1944.74 325.809C1976.14 312.354 1993.18 289.032 2000.36 262.121H1717.8V1.08754H1654.11V325.809H1944.74V325.809ZM1183.17 64.7761H1407.43C1441.51 54.9089 1469.32 28.8952 1476.5 1.08754H1121.28V193.05H1411.91V260.327H1184.07C1148.19 270.194 1117.69 294.414 1102.44 325.809H1474.7V129.362H1184.07L1183.17 64.7761ZM630.606 65.6731H872.802C906.889 59.394 932.006 28.8952 938.285 0.190521H564.227C571.403 28.8952 596.52 58.4969 630.606 65.6731ZM630.606 193.947H872.802C906.889 187.668 932.006 157.169 938.285 128.465H564.227C571.403 157.169 596.52 186.771 630.606 193.947ZM630.606 325.809H872.802C906.889 319.53 932.006 289.032 938.285 260.327H564.227C571.403 289.032 596.52 319.53 630.606 325.809Z" fill="black"/>
<path d="M0 1.08754C7.17618 29.7922 32.2928 58.4969 65.4826 65.6731H167.743L173.125 67.4672V324.912H236.814V67.4672L242.196 65.6731H344.456C378.543 56.7029 402.763 29.7922 409.939 1.08754V0.190521L0 1.08754Z" fill="black"/>
</svg>
